<svg xmlns="http://www.w3.org/2000/svg" version="1.1" xmlns:xlink="http://www.w3.org/1999/xlink" viewBox="0 0 15.010781270326081 5.706170240746788"><g transform="matrix(0.7677237298403201,0,0,0.7677237298403201,5.998850332513015,1.512767892903232)"><g transform="matrix(1,0,0,1,0,0)" clip-path="url(#SvgjsClipPath13042)"><g clip-path="url(#SvgjsClipPath13040f2195356-784a-45c5-8a68-e87dc977f939)"><path d=" M -1.8580109469693284 -0.1269745778551618 C -1.8544458394223784 -0.11897443683901193 -1.8488855871819547 -0.11202412153852806 -1.8418631561399437 -0.10678983931843741 C -1.5078106437875016 0.16471044327133372 -1.2492310716679422 0.5175927804918715 -1.0909908825738257 0.9179220537292443 C -0.9281634785428712 1.2978506636472489 -0.8662814970264079 1.7134101874637637 -0.911346709596994 2.1242965936074367 C -0.9456607651094147 2.135061787493688 -0.9786291713860997 2.144481332144161 -1.0149617007521723 2.1532280521767393 C -1.2067225207089445 2.203233964598552 -1.405235655989609 2.222313030231934 -1.6030104167887353 2.2097453200795694 C -1.5652551432830402 1.7042535501162557 -1.6550177698302777 1.1973723264952407 -1.864066368530405 0.7355865822808358 C -2.0438683415423027 0.3431894011584383 -2.3257249015518284 0.006262763059665055 -2.6802026300318804 -0.2400091136608099 C -2.4013975800434135 -0.2561120810405466 -2.1221267958205083 -0.21771806160564908 -1.8580109469693769 -0.1269745778551618 Z" fill="#67a97b" transform="matrix(1,0,0,1,0,0)" fill-rule="evenodd"></path></g><g clip-path="url(#SvgjsClipPath13040f2195356-784a-45c5-8a68-e87dc977f939)"><path d=" M -3.145124440994421 0.29286798370869227 C -3.1506112086348805 0.28488511707536035 -3.1580142749833526 0.2784074340204383 -3.1666548287668927 0.2740288944077519 C -3.2860796749855314 0.17041084013591484 -3.4146688301411348 0.07785367241447061 -3.550837685582585 -0.0025020235453674378 C -3.414119315810726 -0.07312099308984893 -3.2702050357616264 -0.12883702314019074 -3.1215755793682733 -0.1686897041643916 L -3.1182114562788126 -0.1686897041643916 C -3.0338717924915266 -0.19105315553076857 -2.94827028853698 -0.2083531970123919 -2.8618652768624604 -0.22049719974198362 C -2.469176210938889 0.01843670080756482 -2.1575759879335092 0.3701299547639839 -1.9676813596856073 0.7887397270942058 C -1.7666946356971738 1.2311668482561517 -1.6803850983951603 1.717091857195092 -1.716717777212318 2.201671424664877 C -1.7449764111637105 2.197634476957528 -1.7732350451151513 2.193597529250185 -1.8014936790665437 2.1882149323070545 C -2.0518080626053954 2.1399012511136095 -2.289244117134689 2.0397472396953544 -2.498539983201397 1.8941905742887792 C -2.463625961567018 1.5111816652382308 -2.547240879020744 1.1266939689692794 -2.738065547170522 0.7927766748015488 C -2.8461794114305246 0.6054679906191055 -2.9836076647264442 0.4366924663234433 -3.1451244409943966 0.29286798370869527 Z" fill="#1c3423" transform="matrix(1,0,0,1,0,0)" fill-rule="evenodd"></path></g><g clip-path="url(#SvgjsClipPath13040f2195356-784a-45c5-8a68-e87dc977f939)"><path d=" M -4.679837394403343 2.3342178743893607 C -4.675158449589794 2.3273890785872458 -4.672161268301389 2.3195502967560606 -4.671090674370722 2.311341837381074 C -4.603093753918772 1.8863775911063003 -4.427011803957479 1.4860228417206187 -4.159743964773777 1.1487008976657849 C -3.912277708784569 0.8184858034517619 -3.5839342291297247 0.5575720715594874 -3.206351481222547 0.39110037792074304 C -3.06041668571787 0.5226694316994579 -2.935804276534868 0.6761083909120743 -2.836970766000504 0.8459298196149219 C -2.8181316766995517 0.8782254012736785 -2.7999654120165154 0.9132122814040031 -2.783144796569263 0.9461806876806518 C -3.240450310000981 1.1660819671941336 -3.6351534895527395 1.497392021776836 -3.9309835946909493 1.9096655405002716 C -4.180347035543471 2.260728704561437 -4.331126045965598 2.6721765126625416 -4.3676467717020735 3.1012379387848665 C -4.493364487935681 2.909387170249029 -4.58741477234759 2.6985691414222854 -4.646196163508863 2.4768566933822123 C -4.658979831248715 2.429758970129855 -4.669745025134986 2.3819884222596066 -4.679837394403343 2.3342178743893607 Z" fill="#a4c868" transform="matrix(1,0,0,1,0,0)" fill-rule="evenodd"></path></g><g clip-path="url(#SvgjsClipPath13040f2195356-784a-45c5-8a68-e87dc977f939)"><path d=" M -0.5554224867327671 2.7284931004733664 C -0.9569768328592625 2.9480625971352077 -1.4152704160533522 3.041831105205615 -1.8707946147093013 2.9976229476296883 C -2.3555905329549254 2.9501414001098123 -2.8206531134107777 2.7814694492877683 -3.2231720966697504 2.507133801187296 C -3.04800624392634 2.28326636510872 -2.8222705926624236 2.10410742636299 -2.5644767957546457 1.9843490730861468 C -2.3422032565696456 2.1386740588823856 -2.0900999142358003 2.244786647519259 -1.8243697160747754 2.2958668711695847 C -1.7752535189687788 2.305286415820058 -1.7247916726269255 2.312687486616855 -1.675002650903037 2.317397258942087 L -1.669620053959925 2.317397258942087 C -1.4412097926578782 2.3387022965790263 -1.210835109363496 2.3202632161967665 -0.9887215406544803 2.2628984648929333 C -0.9402781681663028 2.2503390720256364 -0.8925076202960418 2.236209755049928 -0.8454098970436967 2.2205105139658112 L -0.8454098970436967 2.2205105139658112 C -0.7768107691468087 2.197013684509554 -0.7094424521923042 2.170066357727764 -0.6435625116764534 2.1397715598189166 C -0.5621125458593683 2.103581177018955 -0.48261069940510115 2.0631565093303426 -0.40538259694316103 2.0186631285985794 C -0.40874672003257295 2.0785445195908547 -0.4141293169756848 2.1397715598189166 -0.4215303877724965 2.20032577542909 C -0.44354906861745924 2.3813533862211984 -0.48854200834945516 2.558838098229223 -0.5554224867328159 2.728493100473372 Z" fill="#a4c868" transform="matrix(1,0,0,1,0,0)" fill-rule="evenodd"></path></g><g clip-path="url(#SvgjsClipPath13040f2195356-784a-45c5-8a68-e87dc977f939)"><path d=" M -3.673964590656583 3.241185459306153 C -3.6780542356511896 3.2495406181276754 -3.679908721894126 3.2588130493424474 -3.6793471875997197 3.2680984440217795 C -3.709405490663251 3.423321807873198 -3.7251707002210352 3.580973903450676 -3.7264449108520643 3.7390756765453395 C -3.9309922774391044 3.6083698961198407 -4.111861326356992 3.4438814403115003 -4.261340482075206 3.2526234778102934 C -4.251197859107031 2.7936777174514704 -4.103533719426082 2.348341423175601 -3.8374609728040543 1.9742567038177845 C -3.5538394058560394 1.5785383420471435 -3.1753390792625398 1.2604222362610538 -2.736719897934689 1.0491228542179438 C -2.6302459176689745 1.3128650651635594 -2.587819081920317 1.59809330332174 -2.612920168242726 1.8814069065488548 C -2.9621976381997674 2.0416615566403493 -3.2535425960814717 2.3057516636234268 -3.4472226944273583 2.6376617770581183 C -3.5546507879270224 2.825388587296433 -3.631207750753794 3.0291618681735906 -3.673964590656583 3.241185459306153 Z" fill="#67a97b" transform="matrix(1,0,0,1,0,0)" fill-rule="evenodd"></path></g><g clip-path="url(#SvgjsClipPath13040f2195356-784a-45c5-8a68-e87dc977f939)"><path d=" M -1.1401070796798463 3.548666309682245 C -1.147901802838355 3.54875274234774 -1.1556296313986394 3.5501164767995586 -1.1629831166881268 3.552703257389591 C -1.5651550286351488 3.7053359957881913 -1.9998907797780223 3.7516830907927603 -2.425202099851239 3.6872681809677506 C -2.8350280969178625 3.6383128998226404 -3.225287678350198 3.4844338249585762 -3.5582387563793487 3.240512634688264 C -3.51710413871145 3.0477420364153764 -3.44628678973705 2.8625274314053994 -3.3483174755974248 2.6914877464893685 C -3.330151210914389 2.659864989448507 -3.310639296995544 2.628242232407636 -3.2897817338409396 2.5972922999846606 C -2.8704935326743746 2.883364839443004 -2.386013042218858 3.059434396862597 -1.8808869839776086 3.1093118341995587 C -1.4524743634287796 3.1497454808048024 -1.0210504897084327 3.074705140895451 -0.631451668554396 2.8919894826208252 C -0.6489451086195652 2.926303538133264 -0.6677841979204686 2.9592719444099096 -0.6872961118393377 2.9949316491581204 C -0.8063745483281259 3.2034167873945774 -0.9594139294305584 3.390565985979009 -1.1401070796798463 3.548666309682251 Z" fill="#1c3423" transform="matrix(1,0,0,1,0,0)" fill-rule="evenodd"></path></g></g><g><path d=" M 0.734046586394792 1.5527908558351369 L 0.9410853671728103 0.6713075619166045 L 1.09165902592046 1.3614368311766654 M 1.6782689047915118 2.0107857345259044 C 1.6437624413285088 1.8853076855695299 1.2579174407876565 0.3450646346300301 1.2579174407876565 0.24781914668883998 C 1.2579174407876565 0.18821707343456184 1.3394781726093001 0.12234109773246526 1.3394781726093001 0.08469768304555281 C 1.3394781726093001 0.050191219582549795 1.3143825628180252 0.02823256101518412 1.2704652456832939 0.02823256101518412 L 0.6211163423340549 0.02823256101518412 C 0.5771990251993236 0.02823256101518412 0.5521034154080487 0.050191219582549795 0.5521034154080487 0.08469768304555281 C 0.5521034154080487 0.12234109773246526 0.6336641472296923 0.18821707343456184 0.6336641472296923 0.24781914668883998 C 0.6336641472296923 0.3450646346300301 0.20703878077801827 2.0201965881976327 0.18194317098674334 2.117442076138823 C 0.15371060997155903 2.2272353689756508 0.03136951223909368 2.2899743934538384 0.03136951223909368 2.340165613036388 C 0.03136951223909368 2.374672076499391 0.056465122030368624 2.396630735066757 0.10038243916509977 2.396630735066757 L 0.6587597570209672 2.396630735066757 C 0.7089509766035171 2.396630735066757 0.7309096351708827 2.3715351252754817 0.7309096351708827 2.340165613036388 C 0.7309096351708827 2.2899743934538384 0.6179793911101454 2.2491940275430164 0.6179793911101454 2.126852929810551 L 0.6179793911101454 2.0421552467649984 L 1.185767562637741 1.7347340268218803 C 1.185767562637741 1.7347340268218803 1.2892869530267501 2.1582224420496448 1.2892869530267501 2.1801811006170104 C 1.2892869530267501 2.2554679299908353 1.2077262212051065 2.2899743934538384 1.2077262212051065 2.340165613036388 C 1.2077262212051065 2.3715351252754817 1.2296848797724722 2.396630735066757 1.279876099355022 2.396630735066757 L 1.7943361000761584 2.396630735066757 C 1.8382534172108895 2.396630735066757 1.8633490270021644 2.374672076499391 1.8633490270021644 2.340165613036388 C 1.8633490270021644 2.2899743934538384 1.7284601243740616 2.202139759184376 1.6782689047915118 2.0107857345259044 M 3.149523536236442 1.5245582948199525 C 3.149523536236442 1.4900518313569495 3.1212909752212576 1.4649562215656746 3.096195365429983 1.4649562215656746 C 3.0585519507430705 1.4649562215656746 2.8138697552781395 1.6312146364328712 2.7636785356955897 1.6688580511197835 C 2.7385829259043146 1.6876797584632397 2.7291720722325867 1.7033645145827867 2.7291720722325867 1.750418782941427 L 2.7291720722325867 2.0107857345259044 C 2.7291720722325867 2.03274439309327 2.7103503648891305 2.0515661004367263 2.688391706321765 2.0515661004367263 L 2.4154769498416497 2.0515661004367263 C 2.393518291274284 2.0515661004367263 2.3746965839308283 2.03274439309327 2.3746965839308283 2.0107857345259044 L 2.3746965839308283 0.41407756155603637 C 2.3746965839308283 0.3921189029886709 2.393518291274284 0.3732971956452147 2.4154769498416497 0.3732971956452147 L 2.6570221940826713 0.3732971956452147 C 2.678980852650037 0.3732971956452147 2.6978025599934927 0.3921189029886709 2.6978025599934927 0.41407756155603637 L 2.6978025599934927 0.8124703669925262 C 2.6978025599934927 0.8469768304555292 2.7260351210086773 0.8720724402468041 2.751130730799952 0.8720724402468041 C 2.7887741454868644 0.8720724402468041 3.0334563409517954 0.7058140253796075 3.083647560534345 0.6681706106926952 C 3.10874317032562 0.649348903349239 3.118154023997348 0.633664147229692 3.118154023997348 0.5866098788710516 L 3.118154023997348 0.28546256137575243 C 3.118154023997348 0.15684756119546828 2.9926759750409735 0.02823256101518412 2.807595852830321 0.02823256101518412 L 2.2523554861983626 0.02823256101518412 C 2.082960120107257 0.02823256101518412 1.9543451199269728 0.11293024406073693 1.9543451199269728 0.26977780525620565 L 1.9543451199269728 2.1550854908257353 C 1.9543451199269728 2.311933052021204 2.082960120107257 2.396630735066757 2.2523554861983626 2.396630735066757 L 2.8389653650694147 2.396630735066757 C 3.030319389727886 2.396630735066757 3.149523536236442 2.261741832438654 3.149523536236442 2.142537685930098 M 4.473281723293505 2.396630735066757 C 4.54856855266733 2.396630735066757 4.579938064906424 2.3652612228276633 4.579938064906424 2.2899743934538384 L 4.579938064906424 1.6280776852089618 C 4.579938064906424 1.5935712217459588 4.551705503891239 1.5684756119546837 4.526609894099964 1.5684756119546837 C 4.488966479413052 1.5684756119546837 4.2442842839481205 1.7347340268218803 4.194093064365571 1.7723774415087927 C 4.1689974545742965 1.791199148852249 4.159586600902568 1.8068839049717957 4.159586600902568 1.853938173330436 L 4.159586600902568 2.0515661004367263 L 3.902356600542 2.0515661004367263 C 3.8803979419746346 2.0515661004367263 3.861576234631178 2.0358813443171795 3.861576234631178 2.013922685749814 L 3.861576234631178 1.6625841486719648 L 4.222325625380756 1.433586709326581 C 4.269379893739396 1.4053541483113965 4.281927698635034 1.3802585385201216 4.281927698635034 1.3269303677136624 L 4.281927698635034 1.0383308551140005 C 4.281927698635034 1.0038243916509975 4.259969040067668 0.9724548794119039 4.222325625380756 0.9724548794119039 C 4.19723001558948 0.9724548794119039 4.1689974545742965 0.9850026843075412 4.140764893559112 1.0038243916509975 L 3.861576234631178 1.1794936601899222 L 3.861576234631178 0.4109406103321269 C 3.861576234631178 0.3921189029886709 3.8803979419746346 0.3732971956452147 3.902356600542 0.3732971956452147 L 4.159586600902568 0.3732971956452147 L 4.159586600902568 0.718361830275245 C 4.159586600902568 0.752868293738248 4.187819161917752 0.7779639035295229 4.212914771709027 0.7779639035295229 C 4.25055818639594 0.7779639035295229 4.495240381860871 0.6117054886623265 4.54543160144342 0.5740620739754141 C 4.570527211234696 0.5552403666319579 4.579938064906424 0.5395556105124111 4.579938064906424 0.4925013421537705 L 4.579938064906424 0.1348889026281026 C 4.579938064906424 0.05960207325427769 4.54856855266733 0.02823256101518412 4.473281723293505 0.02823256101518412 L 3.3753487949252263 0.02823256101518412 C 3.331431477790495 0.02823256101518412 3.30633586799922 0.05332817080645924 3.30633586799922 0.08156073182164336 C 3.30633586799922 0.14743670752373994 3.441224770627323 0.2195865856736554 3.441224770627323 0.3450646346300301 L 3.441224770627323 2.079798661451911 C 3.441224770627323 2.2052767104082855 3.30633586799922 2.277426588558201 3.30633586799922 2.3433025642602976 C 3.30633586799922 2.3715351252754817 3.331431477790495 2.396630735066757 3.3753487949252263 2.396630735066757 M 5.323406226974197 0.3450646346300301 C 5.323406226974197 0.2195865856736554 5.4582951296023 0.14743670752373994 5.4582951296023 0.08156073182164336 C 5.4582951296023 0.05332817080645924 5.4331995198110254 0.02823256101518412 5.389282202676294 0.02823256101518412 L 4.837178787268245 0.02823256101518412 C 4.793261470133515 0.02823256101518412 4.768165860342239 0.05332817080645924 4.768165860342239 0.08156073182164336 C 4.768165860342239 0.14743670752373994 4.903054762970342 0.2195865856736554 4.903054762970342 0.3450646346300301 L 4.903054762970342 2.079798661451911 C 4.903054762970342 2.2052767104082855 4.768165860342239 2.277426588558201 4.768165860342239 2.3433025642602976 C 4.768165860342239 2.3715351252754817 4.793261470133515 2.396630735066757 4.837178787268245 2.396630735066757 L 5.389282202676294 2.396630735066757 C 5.4331995198110254 2.396630735066757 5.4582951296023 2.3715351252754817 5.4582951296023 2.3433025642602976 C 5.4582951296023 2.277426588558201 5.323406226974197 2.2052767104082855 5.323406226974197 2.079798661451911 M 6.43391759452741 0.3732971956452147 C 6.628408570409791 0.3732971956452147 6.628408570409791 0.3921189029886709 6.691147594887978 0.46113182991467694 C 6.744475765694437 0.5238708543928643 6.769571375485712 0.5489664641841392 6.810351741396534 0.5489664641841392 C 6.860542960979084 0.5489664641841392 6.895049424442087 0.5144600007211362 6.895049424442087 0.46426878113858616 L 6.895049424442087 0.08156073182164336 C 6.895049424442087 0.03136951223909357 6.860542960979084 0 6.810351741396534 0 C 6.7915300340530775 0 6.760160521813984 0.0031369512239090014 6.706832351007525 0.009410853671727892 C 6.644093326529338 0.01882170734345623 6.562532594707694 0.02823256101518412 6.5123413751251435 0.02823256101518412 L 5.93514234992582 0.02823256101518412 C 5.712418813028255 0.02823256101518412 5.6716384471174335 0 5.621447227534883 0 C 5.571256007952334 0 5.552434300608877 0.02195865856736523 5.552434300608877 0.07214987814991547 L 5.552434300608877 0.4830904884820424 C 5.552434300608877 0.5207339031689548 5.574392959176243 0.5489664641841392 5.608899422639246 0.5489664641841392 C 5.652816739773977 0.5489664641841392 5.681049300789161 0.5175969519450454 5.750062227715167 0.4579948786907675 C 5.819075154641173 0.3983928054364896 5.83789686198463 0.3732971956452147 6.013566130523555 0.3732971956452147 L 6.013566130523555 2.079798661451911 C 6.013566130523555 2.2052767104082855 5.8786772278954516 2.277426588558201 5.8786772278954516 2.3433025642602976 C 5.8786772278954516 2.3715351252754817 5.903772837686726 2.396630735066757 5.947690154821458 2.396630735066757 L 6.499793570229507 2.396630735066757 C 6.543710887364238 2.396630735066757 6.568806497155513 2.3715351252754817 6.568806497155513 2.3433025642602976 C 6.568806497155513 2.277426588558201 6.43391759452741 2.2052767104082855 6.43391759452741 2.079798661451911" fill="#1c3423" fill-rule="nonzero"></path></g><g><path d=" M 0.184 3.491665492087724 Q 0.168 3.491665492087724 0.1605 3.475165492087724 L 0.014 3.140165492087724 Q 0.007 3.123165492087724 0.0125 3.112165492087724 Q 0.018000000000000002 3.1011654920877243 0.0335 3.1011654920877243 Q 0.051000000000000004 3.1011654920877243 0.0575 3.116665492087724 L 0.186 3.425165492087724 L 0.1805 3.425165492087724 L 0.3115 3.116665492087724 Q 0.3155 3.1076654920877242 0.32075 3.1044154920877243 Q 0.326 3.1011654920877243 0.335 3.1011654920877243 Q 0.35000000000000003 3.1011654920877243 0.35575 3.111915492087724 Q 0.3615 3.122665492087724 0.3555 3.1356654920877243 L 0.20750000000000002 3.475165492087724 Q 0.20400000000000001 3.483165492087724 0.19825 3.4874154920877243 Q 0.1925 3.491665492087724 0.184 3.491665492087724 M 0.48325708007812496 3.493665492087724 Q 0.442757080078125 3.493665492087724 0.41175708007812495 3.475915492087724 Q 0.380757080078125 3.458165492087724 0.363007080078125 3.426915492087724 Q 0.34525708007812494 3.395665492087724 0.34525708007812494 3.3551654920877243 Q 0.34525708007812494 3.3141654920877244 0.363007080078125 3.2829154920877244 Q 0.380757080078125 3.2516654920877244 0.41175708007812495 3.233915492087724 Q 0.442757080078125 3.216165492087724 0.48325708007812496 3.216165492087724 Q 0.523257080078125 3.216165492087724 0.554257080078125 3.233915492087724 Q 0.5852570800781249 3.2516654920877244 0.603007080078125 3.2829154920877244 Q 0.620757080078125 3.3141654920877244 0.620757080078125 3.3551654920877243 Q 0.620757080078125 3.395665492087724 0.603257080078125 3.426915492087724 Q 0.585757080078125 3.458165492087724 0.554757080078125 3.475915492087724 Q 0.5237570800781249 3.493665492087724 0.48325708007812496 3.493665492087724 M 0.48325708007812496 3.448665492087724 Q 0.509257080078125 3.448665492087724 0.529257080078125 3.436665492087724 Q 0.549257080078125 3.424665492087724 0.560507080078125 3.403665492087724 Q 0.571757080078125 3.382665492087724 0.571757080078125 3.3551654920877243 Q 0.571757080078125 3.327665492087724 0.560507080078125 3.3064154920877242 Q 0.549257080078125 3.285165492087724 0.529257080078125 3.273165492087724 Q 0.509257080078125 3.261165492087724 0.48325708007812496 3.261165492087724 Q 0.457257080078125 3.261165492087724 0.43725708007812497 3.273165492087724 Q 0.417257080078125 3.285165492087724 0.40575708007812494 3.3064154920877242 Q 0.394257080078125 3.327665492087724 0.394257080078125 3.3551654920877243 Q 0.394257080078125 3.382665492087724 0.40575708007812494 3.403665492087724 Q 0.417257080078125 3.424665492087724 0.43725708007812497 3.436665492087724 Q 0.457257080078125 3.448665492087724 0.48325708007812496 3.448665492087724 M 0.7970009765624999 3.493665492087724 Q 0.7620009765625 3.493665492087724 0.7322509765624999 3.482915492087724 Q 0.7025009765625 3.4721654920877243 0.6860009765624999 3.455665492087724 Q 0.6785009765625 3.447665492087724 0.6797509765624999 3.437415492087724 Q 0.6810009765624999 3.427165492087724 0.6895009765625 3.420665492087724 Q 0.6995009765625 3.412665492087724 0.7092509765624999 3.413915492087724 Q 0.7190009765625 3.4151654920877244 0.7260009765625 3.422665492087724 Q 0.7345009765624999 3.4321654920877243 0.7532509765625 3.440415492087724 Q 0.7720009765625 3.448665492087724 0.7950009765624999 3.448665492087724 Q 0.8240009765624999 3.448665492087724 0.8392509765624999 3.439165492087724 Q 0.8545009765625 3.4296654920877243 0.8550009765625 3.414665492087724 Q 0.8555009765624999 3.399665492087724 0.8407509765625 3.388665492087724 Q 0.8260009765624999 3.3776654920877243 0.7870009765624999 3.370665492087724 Q 0.7365009765624999 3.3606654920877244 0.7137509765625 3.3406654920877243 Q 0.6910009765624999 3.3206654920877243 0.6910009765624999 3.291665492087724 Q 0.6910009765624999 3.2661654920877243 0.7060009765624999 3.2494154920877243 Q 0.7210009765625 3.2326654920877242 0.7445009765624999 3.224415492087724 Q 0.7680009765625 3.216165492087724 0.7935009765625 3.216165492087724 Q 0.8265009765625 3.216165492087724 0.8520009765625 3.226665492087724 Q 0.8775009765624999 3.237165492087724 0.8925009765624999 3.255665492087724 Q 0.8995009765624999 3.263665492087724 0.8990009765625 3.272415492087724 Q 0.8985009765624999 3.281165492087724 0.8905009765624999 3.2871654920877242 Q 0.8825009765624999 3.2926654920877243 0.8715009765624999 3.290665492087724 Q 0.8605009765625 3.2886654920877243 0.8530009765625 3.281665492087724 Q 0.8405009765625 3.269665492087724 0.8260009765624999 3.265165492087724 Q 0.8115009765625 3.2606654920877243 0.7925009765625 3.2606654920877243 Q 0.7705009765624999 3.2606654920877243 0.7552509765625 3.268165492087724 Q 0.7400009765625 3.275665492087724 0.7400009765625 3.2901654920877244 Q 0.7400009765625 3.2991654920877242 0.7447509765625 3.3064154920877242 Q 0.7495009765624999 3.313665492087724 0.7635009765624999 3.319415492087724 Q 0.7775009765625 3.325165492087724 0.8045009765625 3.330665492087724 Q 0.8420009765625 3.338165492087724 0.8637509765625 3.3496654920877242 Q 0.8855009765624999 3.361165492087724 0.8950009765625 3.376415492087724 Q 0.9045009765625 3.391665492087724 0.9045009765625 3.411665492087724 Q 0.9045009765625 3.434665492087724 0.8922509765625 3.453165492087724 Q 0.8800009765625 3.471665492087724 0.8562509765624999 3.4826654920877242 Q 0.8325009765625 3.493665492087724 0.7970009765624999 3.493665492087724 M 1.14253076171875 3.608665492087724 Q 1.13153076171875 3.608665492087724 1.1242807617187498 3.601415492087724 Q 1.1170307617187498 3.594165492087724 1.1170307617187498 3.583165492087724 L 1.1170307617187498 3.3551654920877243 Q 1.11753076171875 3.315665492087724 1.13553076171875 3.284165492087724 Q 1.1535307617187498 3.2526654920877243 1.18453076171875 3.234415492087724 Q 1.2155307617187499 3.216165492087724 1.2545307617187498 3.216165492087724 Q 1.2940307617187499 3.216165492087724 1.3250307617187498 3.234415492087724 Q 1.35603076171875 3.2526654920877243 1.37428076171875 3.284165492087724 Q 1.39253076171875 3.315665492087724 1.39253076171875 3.3551654920877243 Q 1.39253076171875 3.394665492087724 1.3757807617187499 3.425915492087724 Q 1.35903076171875 3.457165492087724 1.33003076171875 3.4754154920877243 Q 1.30103076171875 3.493665492087724 1.26453076171875 3.493665492087724 Q 1.23503076171875 3.493665492087724 1.2102807617187499 3.481415492087724 Q 1.1855307617187498 3.469165492087724 1.16803076171875 3.4481654920877243 L 1.16803076171875 3.583165492087724 Q 1.16803076171875 3.594165492087724 1.1610307617187499 3.601415492087724 Q 1.15403076171875 3.608665492087724 1.14253076171875 3.608665492087724 M 1.2545307617187498 3.448665492087724 Q 1.2800307617187499 3.448665492087724 1.3000307617187499 3.436415492087724 Q 1.32003076171875 3.4241654920877242 1.3317807617187498 3.402915492087724 Q 1.34353076171875 3.3816654920877243 1.34353076171875 3.3551654920877243 Q 1.34353076171875 3.328165492087724 1.3317807617187498 3.306915492087724 Q 1.32003076171875 3.285665492087724 1.3000307617187499 3.2734154920877243 Q 1.2800307617187499 3.261165492087724 1.2545307617187498 3.261165492087724 Q 1.2295307617187499 3.261165492087724 1.20928076171875 3.2734154920877243 Q 1.1890307617187499 3.285665492087724 1.1775307617187498 3.306915492087724 Q 1.16603076171875 3.328165492087724 1.16603076171875 3.3551654920877243 Q 1.16603076171875 3.3816654920877243 1.1775307617187498 3.402915492087724 Q 1.1890307617187499 3.4241654920877242 1.20928076171875 3.436415492087724 Q 1.2295307617187499 3.448665492087724 1.2545307617187498 3.448665492087724 M 1.5977822265625 3.493665492087724 Q 1.5562822265624998 3.493665492087724 1.5240322265625 3.475915492087724 Q 1.4917822265625 3.458165492087724 1.4735322265625 3.426915492087724 Q 1.4552822265624998 3.395665492087724 1.4552822265624998 3.3551654920877243 Q 1.4552822265624998 3.3141654920877244 1.4725322265624998 3.2829154920877244 Q 1.4897822265624998 3.2516654920877244 1.5202822265625 3.233915492087724 Q 1.5507822265625 3.216165492087724 1.5902822265624998 3.216165492087724 Q 1.6292822265625 3.216165492087724 1.6572822265625 3.2334154920877243 Q 1.6852822265624998 3.250665492087724 1.7000322265624999 3.280915492087724 Q 1.7147822265625 3.3111654920877243 1.7147822265625 3.350665492087724 Q 1.7147822265625 3.360165492087724 1.7082822265625 3.3664154920877243 Q 1.7017822265625 3.372665492087724 1.6917822265625 3.372665492087724 L 1.4902822265625 3.372665492087724 L 1.4902822265625 3.3326654920877243 L 1.6902822265625 3.3326654920877243 L 1.6697822265625 3.346665492087724 Q 1.6692822265624998 3.321665492087724 1.6597822265625 3.301915492087724 Q 1.6502822265625 3.2821654920877243 1.6327822265624998 3.270665492087724 Q 1.6152822265625 3.259165492087724 1.5902822265624998 3.259165492087724 Q 1.5617822265624999 3.259165492087724 1.5415322265625 3.271665492087724 Q 1.5212822265625 3.284165492087724 1.5107822265625 3.305915492087724 Q 1.5002822265625 3.327665492087724 1.5002822265625 3.3551654920877243 Q 1.5002822265625 3.382665492087724 1.5127822265625 3.4041654920877242 Q 1.5252822265625 3.4256654920877243 1.5472822265625 3.438165492087724 Q 1.5692822265625 3.450665492087724 1.5977822265625 3.450665492087724 Q 1.6132822265625 3.450665492087724 1.6295322265624999 3.4449154920877243 Q 1.6457822265625 3.439165492087724 1.6557822265625 3.431665492087724 Q 1.6632822265625 3.426165492087724 1.6720322265624998 3.425915492087724 Q 1.6807822265624999 3.4256654920877243 1.6872822265625 3.4311654920877244 Q 1.6957822265625 3.438665492087724 1.6962822265625 3.447665492087724 Q 1.6967822265624999 3.456665492087724 1.6882822265625 3.463165492087724 Q 1.6712822265625 3.476665492087724 1.6460322265624998 3.485165492087724 Q 1.6207822265625 3.493665492087724 1.5977822265625 3.493665492087724 M 1.8050180664062498 3.3206654920877243 Q 1.8050180664062498 3.290665492087724 1.8197680664062499 3.2669154920877244 Q 1.83451806640625 3.243165492087724 1.8595180664062498 3.229165492087724 Q 1.88451806640625 3.215165492087724 1.91451806640625 3.215165492087724 Q 1.94451806640625 3.215165492087724 1.95926806640625 3.224915492087724 Q 1.9740180664062499 3.234665492087724 1.97051806640625 3.248165492087724 Q 1.96901806640625 3.255165492087724 1.96476806640625 3.2589154920877244 Q 1.96051806640625 3.262665492087724 1.95501806640625 3.263665492087724 Q 1.94951806640625 3.2646654920877243 1.94301806640625 3.263165492087724 Q 1.91101806640625 3.2566654920877243 1.8855180664062499 3.2621654920877243 Q 1.86001806640625 3.267665492087724 1.84526806640625 3.282665492087724 Q 1.83051806640625 3.297665492087724 1.83051806640625 3.3206654920877243 L 1.8050180664062498 3.3206654920877243 M 1.80551806640625 3.491665492087724 Q 1.79351806640625 3.491665492087724 1.78701806640625 3.485415492087724 Q 1.7805180664062499 3.479165492087724 1.7805180664062499 3.4666654920877242 L 1.7805180664062499 3.243165492087724 Q 1.7805180664062499 3.231165492087724 1.78701806640625 3.2246654920877242 Q 1.79351806640625 3.2181654920877243 1.80551806640625 3.2181654920877243 Q 1.81801806640625 3.2181654920877243 1.8242680664062498 3.224415492087724 Q 1.83051806640625 3.230665492087724 1.83051806640625 3.243165492087724 L 1.83051806640625 3.4666654920877242 Q 1.83051806640625 3.4786654920877242 1.8242680664062498 3.485165492087724 Q 1.81801806640625 3.491665492087724 1.80551806640625 3.491665492087724 M 2.0537795410156248 3.491665492087724 Q 2.044279541015625 3.491665492087724 2.036779541015625 3.484665492087724 Q 2.029279541015625 3.4776654920877244 2.029279541015625 3.466165492087724 L 2.029279541015625 3.2196654920877243 Q 2.029279541015625 3.1836654920877243 2.043529541015625 3.1571654920877243 Q 2.0577795410156248 3.130665492087724 2.083279541015625 3.115915492087724 Q 2.108779541015625 3.1011654920877243 2.142279541015625 3.1011654920877243 Q 2.153279541015625 3.1011654920877243 2.160529541015625 3.1076654920877242 Q 2.167779541015625 3.114165492087724 2.167779541015625 3.124165492087724 Q 2.167779541015625 3.133665492087724 2.160529541015625 3.1404154920877243 Q 2.153279541015625 3.147165492087724 2.142279541015625 3.147165492087724 Q 2.123779541015625 3.147165492087724 2.109779541015625 3.1556654920877243 Q 2.095779541015625 3.164165492087724 2.088029541015625 3.179165492087724 Q 2.080279541015625 3.1941654920877243 2.080279541015625 3.214665492087724 L 2.080279541015625 3.466165492087724 Q 2.080279541015625 3.4776654920877244 2.073279541015625 3.484665492087724 Q 2.066279541015625 3.491665492087724 2.0537795410156248 3.491665492087724 M 2.007779541015625 3.2711654920877242 Q 1.997279541015625 3.2711654920877242 1.990779541015625 3.265165492087724 Q 1.9842795410156249 3.259165492087724 1.9842795410156249 3.2501654920877243 Q 1.9842795410156249 3.240165492087724 1.990779541015625 3.2341654920877243 Q 1.997279541015625 3.228165492087724 2.007779541015625 3.228165492087724 L 2.131279541015625 3.228165492087724 Q 2.141779541015625 3.228165492087724 2.148279541015625 3.2341654920877243 Q 2.154779541015625 3.240165492087724 2.154779541015625 3.2501654920877243 Q 2.154779541015625 3.259165492087724 2.148279541015625 3.265165492087724 Q 2.141779541015625 3.2711654920877242 2.131279541015625 3.2711654920877242 L 2.007779541015625 3.2711654920877242 M 2.32252197265625 3.493665492087724 Q 2.2820219726562496 3.493665492087724 2.25102197265625 3.475915492087724 Q 2.22002197265625 3.458165492087724 2.20227197265625 3.426915492087724 Q 2.18452197265625 3.395665492087724 2.18452197265625 3.3551654920877243 Q 2.18452197265625 3.3141654920877244 2.20227197265625 3.2829154920877244 Q 2.22002197265625 3.2516654920877244 2.25102197265625 3.233915492087724 Q 2.2820219726562496 3.216165492087724 2.32252197265625 3.216165492087724 Q 2.36252197265625 3.216165492087724 2.3935219726562496 3.233915492087724 Q 2.4245219726562497 3.2516654920877244 2.4422719726562496 3.2829154920877244 Q 2.46002197265625 3.3141654920877244 2.46002197265625 3.3551654920877243 Q 2.46002197265625 3.395665492087724 2.44252197265625 3.426915492087724 Q 2.42502197265625 3.458165492087724 2.3940219726562497 3.475915492087724 Q 2.3630219726562496 3.493665492087724 2.32252197265625 3.493665492087724 M 2.32252197265625 3.448665492087724 Q 2.3485219726562496 3.448665492087724 2.3685219726562496 3.436665492087724 Q 2.3885219726562497 3.424665492087724 2.3997719726562496 3.403665492087724 Q 2.4110219726562496 3.382665492087724 2.4110219726562496 3.3551654920877243 Q 2.4110219726562496 3.327665492087724 2.3997719726562496 3.3064154920877242 Q 2.3885219726562497 3.285165492087724 2.3685219726562496 3.273165492087724 Q 2.3485219726562496 3.261165492087724 2.32252197265625 3.261165492087724 Q 2.29652197265625 3.261165492087724 2.2765219726562496 3.273165492087724 Q 2.25652197265625 3.285165492087724 2.2450219726562497 3.3064154920877242 Q 2.23352197265625 3.327665492087724 2.23352197265625 3.3551654920877243 Q 2.23352197265625 3.382665492087724 2.2450219726562497 3.403665492087724 Q 2.25652197265625 3.424665492087724 2.2765219726562496 3.436665492087724 Q 2.29652197265625 3.448665492087724 2.32252197265625 3.448665492087724 M 2.561265869140625 3.3206654920877243 Q 2.561265869140625 3.290665492087724 2.5760158691406247 3.2669154920877244 Q 2.590765869140625 3.243165492087724 2.615765869140625 3.229165492087724 Q 2.640765869140625 3.215165492087724 2.6707658691406246 3.215165492087724 Q 2.700765869140625 3.215165492087724 2.7155158691406247 3.224915492087724 Q 2.730265869140625 3.234665492087724 2.7267658691406247 3.248165492087724 Q 2.7252658691406246 3.255165492087724 2.7210158691406248 3.2589154920877244 Q 2.716765869140625 3.262665492087724 2.711265869140625 3.263665492087724 Q 2.705765869140625 3.2646654920877243 2.699265869140625 3.263165492087724 Q 2.667265869140625 3.2566654920877243 2.6417658691406247 3.2621654920877243 Q 2.6162658691406246 3.267665492087724 2.601515869140625 3.282665492087724 Q 2.586765869140625 3.297665492087724 2.586765869140625 3.3206654920877243 L 2.561265869140625 3.3206654920877243 M 2.5617658691406247 3.491665492087724 Q 2.5497658691406246 3.491665492087724 2.5432658691406247 3.485415492087724 Q 2.5367658691406247 3.479165492087724 2.5367658691406247 3.4666654920877242 L 2.5367658691406247 3.243165492087724 Q 2.5367658691406247 3.231165492087724 2.5432658691406247 3.2246654920877242 Q 2.5497658691406246 3.2181654920877243 2.5617658691406247 3.2181654920877243 Q 2.574265869140625 3.2181654920877243 2.580515869140625 3.224415492087724 Q 2.586765869140625 3.230665492087724 2.586765869140625 3.243165492087724 L 2.586765869140625 3.4666654920877242 Q 2.586765869140625 3.4786654920877242 2.580515869140625 3.485165492087724 Q 2.574265869140625 3.491665492087724 2.5617658691406247 3.491665492087724 M 3.1395273437499998 3.4921654920877243 Q 3.12852734375 3.4921654920877243 3.1212773437499997 3.4849154920877243 Q 3.1140273437499997 3.4776654920877244 3.1140273437499997 3.4666654920877242 L 3.1140273437499997 3.323665492087724 Q 3.1140273437499997 3.292165492087724 3.09852734375 3.276915492087724 Q 3.08302734375 3.261665492087724 3.05802734375 3.261665492087724 Q 3.03202734375 3.261665492087724 3.01527734375 3.279665492087724 Q 2.9985273437499997 3.297665492087724 2.9985273437499997 3.325665492087724 L 2.9570273437499996 3.325665492087724 Q 2.9570273437499996 3.293165492087724 2.97102734375 3.268415492087724 Q 2.9850273437499997 3.2436654920877244 3.01027734375 3.229665492087724 Q 3.0355273437499997 3.215665492087724 3.06802734375 3.215665492087724 Q 3.09652734375 3.215665492087724 3.11852734375 3.228165492087724 Q 3.1405273437499996 3.2406654920877243 3.15277734375 3.264915492087724 Q 3.16502734375 3.289165492087724 3.16502734375 3.323665492087724 L 3.16502734375 3.4666654920877242 Q 3.16502734375 3.4776654920877244 3.1580273437499997 3.4849154920877243 Q 3.15102734375 3.4921654920877243 3.1395273437499998 3.4921654920877243 M 2.80602734375 3.4921654920877243 Q 2.7950273437499997 3.4921654920877243 2.7877773437499997 3.4849154920877243 Q 2.7805273437499998 3.4776654920877244 2.7805273437499998 3.4666654920877242 L 2.7805273437499998 3.244165492087724 Q 2.7805273437499998 3.2326654920877242 2.7877773437499997 3.225665492087724 Q 2.7950273437499997 3.218665492087724 2.80602734375 3.218665492087724 Q 2.8175273437499997 3.218665492087724 2.82452734375 3.225665492087724 Q 2.83152734375 3.2326654920877242 2.83152734375 3.244165492087724 L 2.83152734375 3.4666654920877242 Q 2.83152734375 3.4776654920877244 2.82452734375 3.4849154920877243 Q 2.8175273437499997 3.4921654920877243 2.80602734375 3.4921654920877243 M 2.9730273437499997 3.4921654920877243 Q 2.96202734375 3.4921654920877243 2.95477734375 3.4849154920877243 Q 2.94752734375 3.4776654920877244 2.94752734375 3.4666654920877242 L 2.94752734375 3.323665492087724 Q 2.94752734375 3.292165492087724 2.9320273437499997 3.276915492087724 Q 2.91652734375 3.261665492087724 2.89152734375 3.261665492087724 Q 2.8655273437499997 3.261665492087724 2.84852734375 3.279665492087724 Q 2.83152734375 3.297665492087724 2.83152734375 3.325665492087724 L 2.80002734375 3.325665492087724 Q 2.80002734375 3.293165492087724 2.81302734375 3.268415492087724 Q 2.82602734375 3.2436654920877244 2.84902734375 3.229665492087724 Q 2.8720273437499997 3.215665492087724 2.9015273437499998 3.215665492087724 Q 2.93002734375 3.215665492087724 2.9520273437499998 3.228165492087724 Q 2.97402734375 3.2406654920877243 2.98627734375 3.264915492087724 Q 2.9985273437499997 3.289165492087724 2.9985273437499997 3.323665492087724 L 2.9985273437499997 3.4666654920877242 Q 2.9985273437499997 3.4776654920877244 2.9915273437499996 3.4849154920877243 Q 2.98452734375 3.4921654920877243 2.9730273437499997 3.4921654920877243 M 3.3642714843749997 3.493665492087724 Q 3.327771484375 3.493665492087724 3.298771484375 3.4754154920877243 Q 3.269771484375 3.457165492087724 3.253021484375 3.425915492087724 Q 3.236271484375 3.394665492087724 3.236271484375 3.3551654920877243 Q 3.236271484375 3.315665492087724 3.2545214843749997 3.284165492087724 Q 3.2727714843749998 3.2526654920877243 3.3040214843749998 3.234415492087724 Q 3.3352714843749998 3.216165492087724 3.374271484375 3.216165492087724 Q 3.413271484375 3.216165492087724 3.4442714843749997 3.234415492087724 Q 3.475271484375 3.2526654920877243 3.493521484375 3.284165492087724 Q 3.511771484375 3.315665492087724 3.511771484375 3.3551654920877243 L 3.492271484375 3.3551654920877243 Q 3.492271484375 3.394665492087724 3.4755214843749997 3.425915492087724 Q 3.4587714843749997 3.457165492087724 3.429771484375 3.4754154920877243 Q 3.400771484375 3.493665492087724 3.3642714843749997 3.493665492087724 M 3.374271484375 3.448665492087724 Q 3.399771484375 3.448665492087724 3.419771484375 3.436415492087724 Q 3.439771484375 3.4241654920877242 3.451271484375 3.402915492087724 Q 3.4627714843749997 3.3816654920877243 3.4627714843749997 3.3551654920877243 Q 3.4627714843749997 3.328165492087724 3.451271484375 3.306915492087724 Q 3.439771484375 3.285665492087724 3.419771484375 3.2734154920877243 Q 3.399771484375 3.261165492087724 3.374271484375 3.261165492087724 Q 3.349271484375 3.261165492087724 3.3290214843749997 3.2734154920877243 Q 3.308771484375 3.285665492087724 3.2970214843749996 3.306915492087724 Q 3.285271484375 3.328165492087724 3.285271484375 3.3551654920877243 Q 3.285271484375 3.3816654920877243 3.2970214843749996 3.402915492087724 Q 3.308771484375 3.4241654920877242 3.3290214843749997 3.436415492087724 Q 3.349271484375 3.448665492087724 3.374271484375 3.448665492087724 M 3.486271484375 3.4921654920877243 Q 3.475271484375 3.4921654920877243 3.468021484375 3.4849154920877243 Q 3.460771484375 3.4776654920877244 3.460771484375 3.4666654920877242 L 3.460771484375 3.390165492087724 L 3.470271484375 3.337165492087724 L 3.511771484375 3.3551654920877243 L 3.511771484375 3.4666654920877242 Q 3.511771484375 3.4776654920877244 3.504521484375 3.4849154920877243 Q 3.4972714843749997 3.4921654920877243 3.486271484375 3.4921654920877243 M 3.819515380859375 3.4921654920877243 Q 3.808515380859375 3.4921654920877243 3.801265380859375 3.4849154920877243 Q 3.794015380859375 3.4776654920877244 3.794015380859375 3.4666654920877242 L 3.794015380859375 3.343665492087724 Q 3.794015380859375 3.3151654920877243 3.7835153808593747 3.297165492087724 Q 3.7730153808593747 3.2791654920877242 3.755265380859375 3.270415492087724 Q 3.737515380859375 3.261665492087724 3.7145153808593747 3.261665492087724 Q 3.693515380859375 3.261665492087724 3.676515380859375 3.2701654920877243 Q 3.659515380859375 3.278665492087724 3.6495153808593748 3.292915492087724 Q 3.639515380859375 3.3071654920877243 3.639515380859375 3.325665492087724 L 3.608015380859375 3.325665492087724 Q 3.608015380859375 3.294165492087724 3.623265380859375 3.2694154920877243 Q 3.638515380859375 3.2446654920877243 3.665015380859375 3.2301654920877243 Q 3.691515380859375 3.215665492087724 3.724515380859375 3.215665492087724 Q 3.759015380859375 3.215665492087724 3.786265380859375 3.230415492087724 Q 3.813515380859375 3.245165492087724 3.829265380859375 3.273665492087724 Q 3.8450153808593748 3.302165492087724 3.8450153808593748 3.343665492087724 L 3.8450153808593748 3.4666654920877242 Q 3.8450153808593748 3.4776654920877244 3.837765380859375 3.4849154920877243 Q 3.830515380859375 3.4921654920877243 3.819515380859375 3.4921654920877243 M 3.614015380859375 3.4921654920877243 Q 3.603015380859375 3.4921654920877243 3.595765380859375 3.4849154920877243 Q 3.588515380859375 3.4776654920877244 3.588515380859375 3.4666654920877242 L 3.588515380859375 3.2436654920877244 Q 3.588515380859375 3.232165492087724 3.595765380859375 3.225165492087724 Q 3.603015380859375 3.2181654920877243 3.614015380859375 3.2181654920877243 Q 3.6255153808593747 3.2181654920877243 3.632515380859375 3.225165492087724 Q 3.639515380859375 3.232165492087724 3.639515380859375 3.2436654920877244 L 3.639515380859375 3.4666654920877242 Q 3.639515380859375 3.4776654920877244 3.632515380859375 3.4849154920877243 Q 3.6255153808593747 3.4921654920877243 3.614015380859375 3.4921654920877243 M 4.054268798828125 3.493665492087724 Q 4.014268798828125 3.493665492087724 3.983018798828125 3.4754154920877243 Q 3.951768798828125 3.457165492087724 3.934018798828125 3.425915492087724 Q 3.916268798828125 3.394665492087724 3.916268798828125 3.3551654920877243 Q 3.916268798828125 3.314665492087724 3.933768798828125 3.2831654920877242 Q 3.9512687988281248 3.2516654920877244 3.9817687988281247 3.233915492087724 Q 4.012268798828125 3.216165492087724 4.051768798828125 3.216165492087724 Q 4.081268798828125 3.216165492087724 4.105768798828125 3.227415492087724 Q 4.130268798828125 3.238665492087724 4.149768798828125 3.261165492087724 Q 4.156768798828125 3.269165492087724 4.154768798828125 3.277665492087724 Q 4.1527687988281246 3.286165492087724 4.143768798828125 3.2926654920877243 Q 4.1367687988281245 3.297665492087724 4.128268798828125 3.2959154920877243 Q 4.119768798828125 3.294165492087724 4.1127687988281245 3.2871654920877242 Q 4.088268798828125 3.261165492087724 4.051768798828125 3.261165492087724 Q 4.026268798828125 3.261165492087724 4.006768798828125 3.272915492087724 Q 3.987268798828125 3.2846654920877243 3.976268798828125 3.305665492087724 Q 3.965268798828125 3.326665492087724 3.965268798828125 3.3551654920877243 Q 3.965268798828125 3.382165492087724 3.976518798828125 3.4031654920877243 Q 3.987768798828125 3.4241654920877242 4.007768798828125 3.436415492087724 Q 4.0277687988281246 3.448665492087724 4.054268798828125 3.448665492087724 Q 4.071768798828125 3.448665492087724 4.085018798828125 3.444415492087724 Q 4.098268798828125 3.4401654920877243 4.109268798828125 3.4311654920877244 Q 4.117268798828125 3.424665492087724 4.125768798828125 3.423915492087724 Q 4.134268798828125 3.4231654920877244 4.140768798828125 3.428665492087724 Q 4.149268798828125 3.435665492087724 4.150268798828125 3.444415492087724 Q 4.151268798828125 3.453165492087724 4.144268798828125 3.4601654920877243 Q 4.108268798828125 3.493665492087724 4.054268798828125 3.493665492087724 M 4.360025390624999 3.493665492087724 Q 4.318525390624999 3.493665492087724 4.286275390625 3.475915492087724 Q 4.254025390624999 3.458165492087724 4.235775390624999 3.426915492087724 Q 4.217525390624999 3.395665492087724 4.217525390624999 3.3551654920877243 Q 4.217525390624999 3.3141654920877244 4.234775390625 3.2829154920877244 Q 4.252025390625 3.2516654920877244 4.282525390625 3.233915492087724 Q 4.313025390625 3.216165492087724 4.352525390625 3.216165492087724 Q 4.391525390625 3.216165492087724 4.419525390624999 3.2334154920877243 Q 4.447525390625 3.250665492087724 4.462275390625 3.280915492087724 Q 4.477025390624999 3.3111654920877243 4.477025390624999 3.350665492087724 Q 4.477025390624999 3.360165492087724 4.470525390624999 3.3664154920877243 Q 4.464025390624999 3.372665492087724 4.454025390625 3.372665492087724 L 4.252525390624999 3.372665492087724 L 4.252525390624999 3.3326654920877243 L 4.4525253906249995 3.3326654920877243 L 4.432025390624999 3.346665492087724 Q 4.431525390625 3.321665492087724 4.4220253906249996 3.301915492087724 Q 4.4125253906249995 3.2821654920877243 4.395025390624999 3.270665492087724 Q 4.377525390624999 3.259165492087724 4.352525390625 3.259165492087724 Q 4.324025390625 3.259165492087724 4.303775390625 3.271665492087724 Q 4.283525390625 3.284165492087724 4.2730253906249995 3.305915492087724 Q 4.262525390624999 3.327665492087724 4.262525390624999 3.3551654920877243 Q 4.262525390624999 3.382665492087724 4.275025390624999 3.4041654920877242 Q 4.2875253906249995 3.4256654920877243 4.309525390625 3.438165492087724 Q 4.331525390624999 3.450665492087724 4.360025390624999 3.450665492087724 Q 4.375525390625 3.450665492087724 4.391775390625 3.4449154920877243 Q 4.408025390624999 3.439165492087724 4.418025390624999 3.431665492087724 Q 4.425525390624999 3.426165492087724 4.434275390624999 3.425915492087724 Q 4.4430253906249995 3.4256654920877243 4.449525390624999 3.4311654920877244 Q 4.458025390624999 3.438665492087724 4.458525390625 3.447665492087724 Q 4.4590253906249995 3.456665492087724 4.450525390625 3.463165492087724 Q 4.433525390624999 3.476665492087724 4.408275390625 3.485165492087724 Q 4.383025390625 3.493665492087724 4.360025390624999 3.493665492087724 M 4.642261230468749 3.493665492087724 Q 4.607261230468749 3.493665492087724 4.577511230468749 3.482915492087724 Q 4.547761230468749 3.4721654920877243 4.53126123046875 3.455665492087724 Q 4.523761230468749 3.447665492087724 4.52501123046875 3.437415492087724 Q 4.52626123046875 3.427165492087724 4.5347612304687495 3.420665492087724 Q 4.544761230468749 3.412665492087724 4.55451123046875 3.413915492087724 Q 4.56426123046875 3.4151654920877244 4.57126123046875 3.422665492087724 Q 4.579761230468749 3.4321654920877243 4.598511230468749 3.440415492087724 Q 4.61726123046875 3.448665492087724 4.64026123046875 3.448665492087724 Q 4.6692612304687495 3.448665492087724 4.6845112304687495 3.439165492087724 Q 4.6997612304687495 3.4296654920877243 4.700261230468749 3.414665492087724 Q 4.70076123046875 3.399665492087724 4.68601123046875 3.388665492087724 Q 4.671261230468749 3.3776654920877243 4.63226123046875 3.370665492087724 Q 4.581761230468749 3.3606654920877244 4.55901123046875 3.3406654920877243 Q 4.5362612304687495 3.3206654920877243 4.5362612304687495 3.291665492087724 Q 4.5362612304687495 3.2661654920877243 4.551261230468749 3.2494154920877243 Q 4.56626123046875 3.2326654920877242 4.589761230468749 3.224415492087724 Q 4.6132612304687495 3.216165492087724 4.6387612304687496 3.216165492087724 Q 4.67176123046875 3.216165492087724 4.697261230468749 3.226665492087724 Q 4.722761230468749 3.237165492087724 4.73776123046875 3.255665492087724 Q 4.744761230468749 3.263665492087724 4.74426123046875 3.272415492087724 Q 4.743761230468749 3.281165492087724 4.73576123046875 3.2871654920877242 Q 4.72776123046875 3.2926654920877243 4.71676123046875 3.290665492087724 Q 4.70576123046875 3.2886654920877243 4.698261230468749 3.281665492087724 Q 4.685761230468749 3.269665492087724 4.671261230468749 3.265165492087724 Q 4.656761230468749 3.2606654920877243 4.637761230468749 3.2606654920877243 Q 4.61576123046875 3.2606654920877243 4.60051123046875 3.268165492087724 Q 4.58526123046875 3.275665492087724 4.58526123046875 3.2901654920877244 Q 4.58526123046875 3.2991654920877242 4.5900112304687495 3.3064154920877242 Q 4.59476123046875 3.313665492087724 4.608761230468749 3.319415492087724 Q 4.6227612304687495 3.325165492087724 4.64976123046875 3.330665492087724 Q 4.687261230468749 3.338165492087724 4.709011230468749 3.3496654920877242 Q 4.730761230468749 3.361165492087724 4.740261230468749 3.376415492087724 Q 4.749761230468749 3.391665492087724 4.749761230468749 3.411665492087724 Q 4.749761230468749 3.434665492087724 4.7375112304687494 3.453165492087724 Q 4.72526123046875 3.471665492087724 4.70151123046875 3.4826654920877242 Q 4.677761230468749 3.493665492087724 4.642261230468749 3.493665492087724 M 5.3212910156249995 3.4921654920877243 Q 5.310291015624999 3.4921654920877243 5.303041015624999 3.4849154920877243 Q 5.295791015624999 3.4776654920877244 5.295791015624999 3.4666654920877242 L 5.295791015624999 3.323665492087724 Q 5.295791015624999 3.292165492087724 5.280291015625 3.276915492087724 Q 5.264791015625 3.261665492087724 5.239791015624999 3.261665492087724 Q 5.213791015625 3.261665492087724 5.1970410156249995 3.279665492087724 Q 5.1802910156249995 3.297665492087724 5.1802910156249995 3.325665492087724 L 5.138791015624999 3.325665492087724 Q 5.138791015624999 3.293165492087724 5.152791015625 3.268415492087724 Q 5.166791015625 3.2436654920877244 5.192041015625 3.229665492087724 Q 5.217291015624999 3.215665492087724 5.249791015625 3.215665492087724 Q 5.278291015624999 3.215665492087724 5.300291015625 3.228165492087724 Q 5.322291015625 3.2406654920877243 5.334541015625 3.264915492087724 Q 5.346791015625 3.289165492087724 5.346791015625 3.323665492087724 L 5.346791015625 3.4666654920877242 Q 5.346791015625 3.4776654920877244 5.339791015625 3.4849154920877243 Q 5.332791015624999 3.4921654920877243 5.3212910156249995 3.4921654920877243 M 4.987791015625 3.4921654920877243 Q 4.9767910156249995 3.4921654920877243 4.9695410156249995 3.4849154920877243 Q 4.9622910156249995 3.4776654920877244 4.9622910156249995 3.4666654920877242 L 4.9622910156249995 3.244165492087724 Q 4.9622910156249995 3.2326654920877242 4.9695410156249995 3.225665492087724 Q 4.9767910156249995 3.218665492087724 4.987791015625 3.218665492087724 Q 4.9992910156249994 3.218665492087724 5.006291015625 3.225665492087724 Q 5.013291015625 3.2326654920877242 5.013291015625 3.244165492087724 L 5.013291015625 3.4666654920877242 Q 5.013291015625 3.4776654920877244 5.006291015625 3.4849154920877243 Q 4.9992910156249994 3.4921654920877243 4.987791015625 3.4921654920877243 M 5.154791015624999 3.4921654920877243 Q 5.143791015624999 3.4921654920877243 5.136541015624999 3.4849154920877243 Q 5.129291015624999 3.4776654920877244 5.129291015624999 3.4666654920877242 L 5.129291015624999 3.323665492087724 Q 5.129291015624999 3.292165492087724 5.113791015625 3.276915492087724 Q 5.098291015625 3.261665492087724 5.073291015624999 3.261665492087724 Q 5.0472910156249995 3.261665492087724 5.030291015625 3.279665492087724 Q 5.013291015625 3.297665492087724 5.013291015625 3.325665492087724 L 4.981791015624999 3.325665492087724 Q 4.981791015624999 3.293165492087724 4.994791015624999 3.268415492087724 Q 5.007791015624999 3.2436654920877244 5.030791015625 3.229665492087724 Q 5.053791015624999 3.215665492087724 5.083291015625 3.215665492087724 Q 5.111791015624999 3.215665492087724 5.1337910156249995 3.228165492087724 Q 5.155791015625 3.2406654920877243 5.168041015625 3.264915492087724 Q 5.1802910156249995 3.289165492087724 5.1802910156249995 3.323665492087724 L 5.1802910156249995 3.4666654920877242 Q 5.1802910156249995 3.4776654920877244 5.173291015625 3.4849154920877243 Q 5.166291015624999 3.4921654920877243 5.154791015624999 3.4921654920877243 M 5.560535156249999 3.493665492087724 Q 5.519035156249999 3.493665492087724 5.48678515625 3.475915492087724 Q 5.4545351562499995 3.458165492087724 5.436285156249999 3.426915492087724 Q 5.418035156249999 3.395665492087724 5.418035156249999 3.3551654920877243 Q 5.418035156249999 3.3141654920877244 5.43528515625 3.2829154920877244 Q 5.45253515625 3.2516654920877244 5.48303515625 3.233915492087724 Q 5.51353515625 3.216165492087724 5.55303515625 3.216165492087724 Q 5.59203515625 3.216165492087724 5.620035156249999 3.2334154920877243 Q 5.64803515625 3.250665492087724 5.66278515625 3.280915492087724 Q 5.677535156249999 3.3111654920877243 5.677535156249999 3.350665492087724 Q 5.677535156249999 3.360165492087724 5.671035156249999 3.3664154920877243 Q 5.6645351562499995 3.372665492087724 5.65453515625 3.372665492087724 L 5.4530351562499995 3.372665492087724 L 5.4530351562499995 3.3326654920877243 L 5.65303515625 3.3326654920877243 L 5.6325351562499995 3.346665492087724 Q 5.63203515625 3.321665492087724 5.62253515625 3.301915492087724 Q 5.61303515625 3.2821654920877243 5.5955351562499995 3.270665492087724 Q 5.5780351562499995 3.259165492087724 5.55303515625 3.259165492087724 Q 5.52453515625 3.259165492087724 5.50428515625 3.271665492087724 Q 5.48403515625 3.284165492087724 5.47353515625 3.305915492087724 Q 5.463035156249999 3.327665492087724 5.463035156249999 3.3551654920877243 Q 5.463035156249999 3.382665492087724 5.475535156249999 3.4041654920877242 Q 5.48803515625 3.4256654920877243 5.51003515625 3.438165492087724 Q 5.532035156249999 3.450665492087724 5.560535156249999 3.450665492087724 Q 5.57603515625 3.450665492087724 5.59228515625 3.4449154920877243 Q 5.608535156249999 3.439165492087724 5.618535156249999 3.431665492087724 Q 5.6260351562499995 3.426165492087724 5.6347851562499995 3.425915492087724 Q 5.64353515625 3.4256654920877243 5.6500351562499995 3.4311654920877244 Q 5.658535156249999 3.438665492087724 5.65903515625 3.447665492087724 Q 5.65953515625 3.456665492087724 5.65103515625 3.463165492087724 Q 5.6340351562499995 3.476665492087724 5.60878515625 3.485165492087724 Q 5.58353515625 3.493665492087724 5.560535156249999 3.493665492087724 M 5.55003515625 3.175165492087724 Q 5.53903515625 3.175165492087724 5.53178515625 3.167915492087724 Q 5.52453515625 3.160665492087724 5.52453515625 3.149665492087724 Q 5.52453515625 3.139165492087724 5.53053515625 3.132665492087724 L 5.5795351562499995 3.0836654920877242 Q 5.58703515625 3.076165492087724 5.597535156249999 3.076165492087724 Q 5.60903515625 3.076165492087724 5.61603515625 3.0836654920877242 Q 5.623035156249999 3.091165492087724 5.623035156249999 3.102165492087724 Q 5.623035156249999 3.107165492087724 5.621535156249999 3.1116654920877242 Q 5.620035156249999 3.116165492087724 5.61603515625 3.1196654920877243 L 5.56753515625 3.168165492087724 Q 5.560535156249999 3.175165492087724 5.55003515625 3.175165492087724 M 5.767770996093749 3.3206654920877243 Q 5.767770996093749 3.290665492087724 5.78252099609375 3.2669154920877244 Q 5.79727099609375 3.243165492087724 5.822270996093749 3.229165492087724 Q 5.84727099609375 3.215165492087724 5.87727099609375 3.215165492087724 Q 5.907270996093749 3.215165492087724 5.9220209960937495 3.224915492087724 Q 5.93677099609375 3.234665492087724 5.93327099609375 3.248165492087724 Q 5.93177099609375 3.255165492087724 5.92752099609375 3.2589154920877244 Q 5.923270996093749 3.262665492087724 5.91777099609375 3.263665492087724 Q 5.91227099609375 3.2646654920877243 5.90577099609375 3.263165492087724 Q 5.87377099609375 3.2566654920877243 5.84827099609375 3.2621654920877243 Q 5.82277099609375 3.267665492087724 5.80802099609375 3.282665492087724 Q 5.793270996093749 3.297665492087724 5.793270996093749 3.3206654920877243 L 5.767770996093749 3.3206654920877243 M 5.76827099609375 3.491665492087724 Q 5.7562709960937495 3.491665492087724 5.7497709960937495 3.485415492087724 Q 5.74327099609375 3.479165492087724 5.74327099609375 3.4666654920877242 L 5.74327099609375 3.243165492087724 Q 5.74327099609375 3.231165492087724 5.7497709960937495 3.2246654920877242 Q 5.7562709960937495 3.2181654920877243 5.76827099609375 3.2181654920877243 Q 5.780770996093749 3.2181654920877243 5.78702099609375 3.224415492087724 Q 5.793270996093749 3.230665492087724 5.793270996093749 3.243165492087724 L 5.793270996093749 3.4666654920877242 Q 5.793270996093749 3.4786654920877242 5.78702099609375 3.485165492087724 Q 5.780770996093749 3.491665492087724 5.76827099609375 3.491665492087724 M 6.017532470703125 3.491665492087724 Q 6.0065324707031245 3.491665492087724 5.9992824707031245 3.484415492087724 Q 5.9920324707031245 3.477165492087724 5.9920324707031245 3.466165492087724 L 5.9920324707031245 3.2436654920877244 Q 5.9920324707031245 3.232165492087724 5.9992824707031245 3.225165492087724 Q 6.0065324707031245 3.2181654920877243 6.017532470703125 3.2181654920877243 Q 6.029032470703124 3.2181654920877243 6.036032470703125 3.225165492087724 Q 6.043032470703125 3.232165492087724 6.043032470703125 3.2436654920877244 L 6.043032470703125 3.466165492087724 Q 6.043032470703125 3.477165492087724 6.036032470703125 3.484415492087724 Q 6.029032470703124 3.491665492087724 6.017532470703125 3.491665492087724 M 6.017532470703125 3.173665492087724 Q 6.004032470703125 3.173665492087724 5.994282470703125 3.163915492087724 Q 5.984532470703125 3.1541654920877242 5.984532470703125 3.140665492087724 Q 5.984532470703125 3.127165492087724 5.994282470703125 3.117415492087724 Q 6.004032470703125 3.1076654920877242 6.017532470703125 3.1076654920877242 Q 6.031032470703125 3.1076654920877242 6.040782470703125 3.117415492087724 Q 6.050532470703125 3.127165492087724 6.050532470703125 3.140665492087724 Q 6.050532470703125 3.1541654920877242 6.040782470703125 3.163915492087724 Q 6.031032470703125 3.173665492087724 6.017532470703125 3.173665492087724 M 6.238283447265625 3.491665492087724 Q 6.213283447265625 3.491665492087724 6.193283447265625 3.478915492087724 Q 6.173283447265625 3.466165492087724 6.161783447265624 3.4441654920877243 Q 6.1502834472656245 3.422165492087724 6.1502834472656245 3.394665492087724 L 6.1502834472656245 3.156165492087724 Q 6.1502834472656245 3.145165492087724 6.157283447265625 3.138165492087724 Q 6.164283447265625 3.131165492087724 6.175283447265625 3.131165492087724 Q 6.186283447265625 3.131165492087724 6.193283447265625 3.138165492087724 Q 6.200283447265624 3.145165492087724 6.200283447265624 3.156165492087724 L 6.200283447265624 3.394665492087724 Q 6.200283447265624 3.414665492087724 6.211283447265624 3.4281654920877243 Q 6.2222834472656245 3.4416654920877243 6.238283447265625 3.4416654920877243 L 6.255283447265625 3.4416654920877243 Q 6.264283447265624 3.4416654920877243 6.270533447265625 3.448665492087724 Q 6.2767834472656245 3.455665492087724 6.2767834472656245 3.4666654920877242 Q 6.2767834472656245 3.4776654920877244 6.268533447265625 3.484665492087724 Q 6.260283447265625 3.491665492087724 6.247283447265625 3.491665492087724 L 6.238283447265625 3.491665492087724 M 6.127283447265625 3.2711654920877242 Q 6.116783447265624 3.2711654920877242 6.1102834472656244 3.265165492087724 Q 6.1037834472656245 3.259165492087724 6.1037834472656245 3.2501654920877243 Q 6.1037834472656245 3.240165492087724 6.1102834472656244 3.2341654920877243 Q 6.116783447265624 3.228165492087724 6.127283447265625 3.228165492087724 L 6.242783447265625 3.228165492087724 Q 6.253283447265625 3.228165492087724 6.259783447265625 3.2341654920877243 Q 6.266283447265625 3.240165492087724 6.266283447265625 3.2501654920877243 Q 6.266283447265625 3.259165492087724 6.259783447265625 3.265165492087724 Q 6.253283447265625 3.2711654920877242 6.242783447265625 3.2711654920877242 L 6.127283447265625 3.2711654920877242 M 6.4685339355468745 3.493665492087724 Q 6.427033935546874 3.493665492087724 6.394783935546875 3.475915492087724 Q 6.362533935546875 3.458165492087724 6.3442839355468745 3.426915492087724 Q 6.326033935546874 3.395665492087724 6.326033935546874 3.3551654920877243 Q 6.326033935546874 3.3141654920877244 6.343283935546875 3.2829154920877244 Q 6.360533935546875 3.2516654920877244 6.391033935546875 3.233915492087724 Q 6.421533935546875 3.216165492087724 6.461033935546875 3.216165492087724 Q 6.500033935546875 3.216165492087724 6.528033935546874 3.2334154920877243 Q 6.556033935546875 3.250665492087724 6.570783935546875 3.280915492087724 Q 6.5855339355468745 3.3111654920877243 6.5855339355468745 3.350665492087724 Q 6.5855339355468745 3.360165492087724 6.5790339355468745 3.3664154920877243 Q 6.572533935546875 3.372665492087724 6.562533935546875 3.372665492087724 L 6.361033935546875 3.372665492087724 L 6.361033935546875 3.3326654920877243 L 6.561033935546875 3.3326654920877243 L 6.540533935546875 3.346665492087724 Q 6.540033935546875 3.321665492087724 6.530533935546875 3.301915492087724 Q 6.521033935546875 3.2821654920877243 6.503533935546875 3.270665492087724 Q 6.486033935546875 3.259165492087724 6.461033935546875 3.259165492087724 Q 6.432533935546875 3.259165492087724 6.412283935546875 3.271665492087724 Q 6.392033935546875 3.284165492087724 6.381533935546875 3.305915492087724 Q 6.371033935546874 3.327665492087724 6.371033935546874 3.3551654920877243 Q 6.371033935546874 3.382665492087724 6.3835339355468745 3.4041654920877242 Q 6.396033935546875 3.4256654920877243 6.418033935546875 3.438165492087724 Q 6.440033935546874 3.450665492087724 6.4685339355468745 3.450665492087724 Q 6.484033935546875 3.450665492087724 6.500283935546875 3.4449154920877243 Q 6.5165339355468745 3.439165492087724 6.526533935546874 3.431665492087724 Q 6.534033935546875 3.426165492087724 6.542783935546875 3.425915492087724 Q 6.551533935546875 3.4256654920877243 6.558033935546875 3.4311654920877244 Q 6.566533935546874 3.438665492087724 6.567033935546875 3.447665492087724 Q 6.567533935546875 3.456665492087724 6.559033935546875 3.463165492087724 Q 6.542033935546875 3.476665492087724 6.516783935546875 3.485165492087724 Q 6.491533935546875 3.493665492087724 6.4685339355468745 3.493665492087724 M 6.882269775390625 3.4921654920877243 Q 6.8712697753906244 3.4921654920877243 6.8640197753906245 3.4849154920877243 Q 6.8567697753906245 3.4776654920877244 6.8567697753906245 3.4666654920877242 L 6.8567697753906245 3.343665492087724 Q 6.8567697753906245 3.3151654920877243 6.846269775390625 3.297165492087724 Q 6.835769775390625 3.2791654920877242 6.818019775390625 3.270415492087724 Q 6.800269775390625 3.261665492087724 6.777269775390625 3.261665492087724 Q 6.756269775390625 3.261665492087724 6.739269775390625 3.2701654920877243 Q 6.722269775390624 3.278665492087724 6.712269775390625 3.292915492087724 Q 6.702269775390625 3.3071654920877243 6.702269775390625 3.325665492087724 L 6.6707697753906245 3.325665492087724 Q 6.6707697753906245 3.294165492087724 6.6860197753906245 3.2694154920877243 Q 6.7012697753906245 3.2446654920877243 6.727769775390625 3.2301654920877243 Q 6.7542697753906245 3.215665492087724 6.787269775390625 3.215665492087724 Q 6.821769775390624 3.215665492087724 6.849019775390625 3.230415492087724 Q 6.876269775390625 3.245165492087724 6.892019775390625 3.273665492087724 Q 6.907769775390625 3.302165492087724 6.907769775390625 3.343665492087724 L 6.907769775390625 3.4666654920877242 Q 6.907769775390625 3.4776654920877244 6.900519775390625 3.4849154920877243 Q 6.893269775390625 3.4921654920877243 6.882269775390625 3.4921654920877243 M 6.676769775390625 3.4921654920877243 Q 6.665769775390625 3.4921654920877243 6.658519775390625 3.4849154920877243 Q 6.651269775390625 3.4776654920877244 6.651269775390625 3.4666654920877242 L 6.651269775390625 3.2436654920877244 Q 6.651269775390625 3.232165492087724 6.658519775390625 3.225165492087724 Q 6.665769775390625 3.2181654920877243 6.676769775390625 3.2181654920877243 Q 6.688269775390625 3.2181654920877243 6.695269775390625 3.225165492087724 Q 6.702269775390625 3.232165492087724 6.702269775390625 3.2436654920877244 L 6.702269775390625 3.4666654920877242 Q 6.702269775390625 3.4776654920877244 6.695269775390625 3.4849154920877243 Q 6.688269775390625 3.4921654920877243 6.676769775390625 3.4921654920877243 M 7.092523193359375 3.491665492087724 Q 7.067523193359375 3.491665492087724 7.047523193359375 3.478915492087724 Q 7.027523193359375 3.466165492087724 7.016023193359374 3.4441654920877243 Q 7.004523193359375 3.422165492087724 7.004523193359375 3.394665492087724 L 7.004523193359375 3.156165492087724 Q 7.004523193359375 3.145165492087724 7.011523193359375 3.138165492087724 Q 7.018523193359375 3.131165492087724 7.029523193359375 3.131165492087724 Q 7.040523193359375 3.131165492087724 7.047523193359375 3.138165492087724 Q 7.054523193359374 3.145165492087724 7.054523193359374 3.156165492087724 L 7.054523193359374 3.394665492087724 Q 7.054523193359374 3.414665492087724 7.0655231933593745 3.4281654920877243 Q 7.076523193359375 3.4416654920877243 7.092523193359375 3.4416654920877243 L 7.109523193359375 3.4416654920877243 Q 7.1185231933593744 3.4416654920877243 7.124773193359375 3.448665492087724 Q 7.131023193359375 3.455665492087724 7.131023193359375 3.4666654920877242 Q 7.131023193359375 3.4776654920877244 7.122773193359375 3.484665492087724 Q 7.114523193359375 3.491665492087724 7.101523193359375 3.491665492087724 L 7.092523193359375 3.491665492087724 M 6.981523193359375 3.2711654920877242 Q 6.9710231933593745 3.2711654920877242 6.9645231933593745 3.265165492087724 Q 6.958023193359375 3.259165492087724 6.958023193359375 3.2501654920877243 Q 6.958023193359375 3.240165492087724 6.9645231933593745 3.2341654920877243 Q 6.9710231933593745 3.228165492087724 6.981523193359375 3.228165492087724 L 7.097023193359375 3.228165492087724 Q 7.107523193359375 3.228165492087724 7.114023193359375 3.2341654920877243 Q 7.120523193359375 3.240165492087724 7.120523193359375 3.2501654920877243 Q 7.120523193359375 3.259165492087724 7.114023193359375 3.265165492087724 Q 7.107523193359375 3.2711654920877242 7.097023193359375 3.2711654920877242 L 6.981523193359375 3.2711654920877242 M 7.33103857421875 3.491665492087724 Q 7.31703857421875 3.491665492087724 7.30953857421875 3.479665492087724 Q 7.3020385742187495 3.467665492087724 7.30803857421875 3.454165492087724 L 7.44853857421875 3.1186654920877244 Q 7.45603857421875 3.1011654920877243 7.47303857421875 3.1011654920877243 Q 7.4910385742187495 3.1011654920877243 7.4975385742187495 3.1186654920877244 L 7.6385385742187495 3.455165492087724 Q 7.64403857421875 3.469165492087724 7.63678857421875 3.480415492087724 Q 7.62953857421875 3.491665492087724 7.61503857421875 3.491665492087724 Q 7.60753857421875 3.491665492087724 7.6007885742187495 3.4874154920877243 Q 7.59403857421875 3.483165492087724 7.59103857421875 3.475665492087724 L 7.4670385742187495 3.1676654920877243 L 7.48103857421875 3.1676654920877243 L 7.35503857421875 3.475665492087724 Q 7.35153857421875 3.483665492087724 7.34478857421875 3.487665492087724 Q 7.33803857421875 3.491665492087724 7.33103857421875 3.491665492087724 M 7.35753857421875 3.4056654920877243 L 7.37753857421875 3.362665492087724 L 7.57353857421875 3.362665492087724 L 7.59353857421875 3.4056654920877243 L 7.35753857421875 3.4056654920877243 M 7.8077802734374995 3.493665492087724 Q 7.7677802734375 3.493665492087724 7.7365302734375 3.4754154920877243 Q 7.7052802734375 3.457165492087724 7.6875302734375 3.425915492087724 Q 7.6697802734375 3.394665492087724 7.6697802734375 3.3551654920877243 Q 7.6697802734375 3.314665492087724 7.6872802734375 3.2831654920877242 Q 7.7047802734375 3.2516654920877244 7.7352802734375 3.233915492087724 Q 7.7657802734375 3.216165492087724 7.8052802734375 3.216165492087724 Q 7.8347802734375 3.216165492087724 7.8592802734375 3.227415492087724 Q 7.8837802734375 3.238665492087724 7.9032802734375 3.261165492087724 Q 7.9102802734374995 3.269165492087724 7.9082802734375 3.277665492087724 Q 7.9062802734375 3.286165492087724 7.8972802734375 3.2926654920877243 Q 7.8902802734375 3.297665492087724 7.8817802734375 3.2959154920877243 Q 7.8732802734375 3.294165492087724 7.8662802734375 3.2871654920877242 Q 7.8417802734375 3.261165492087724 7.8052802734375 3.261165492087724 Q 7.7797802734375 3.261165492087724 7.7602802734375 3.272915492087724 Q 7.7407802734375 3.2846654920877243 7.7297802734375 3.305665492087724 Q 7.7187802734375 3.326665492087724 7.7187802734375 3.3551654920877243 Q 7.7187802734375 3.382165492087724 7.7300302734374995 3.4031654920877243 Q 7.7412802734375 3.4241654920877242 7.7612802734374995 3.436415492087724 Q 7.7812802734375 3.448665492087724 7.8077802734374995 3.448665492087724 Q 7.8252802734374995 3.448665492087724 7.8385302734375 3.444415492087724 Q 7.8517802734375 3.4401654920877243 7.8627802734375 3.4311654920877244 Q 7.8707802734375 3.424665492087724 7.8792802734375 3.423915492087724 Q 7.8877802734374995 3.4231654920877244 7.8942802734374995 3.428665492087724 Q 7.9027802734375 3.435665492087724 7.9037802734375 3.444415492087724 Q 7.9047802734375 3.453165492087724 7.8977802734375 3.4601654920877243 Q 7.8617802734375 3.493665492087724 7.8077802734374995 3.493665492087724 M 8.113536865234375 3.493665492087724 Q 8.072036865234375 3.493665492087724 8.039786865234374 3.475915492087724 Q 8.007536865234375 3.458165492087724 7.989286865234375 3.426915492087724 Q 7.971036865234375 3.395665492087724 7.971036865234375 3.3551654920877243 Q 7.971036865234375 3.3141654920877244 7.988286865234375 3.2829154920877244 Q 8.005536865234374 3.2516654920877244 8.036036865234374 3.233915492087724 Q 8.066536865234374 3.216165492087724 8.106036865234374 3.216165492087724 Q 8.145036865234374 3.216165492087724 8.173036865234375 3.2334154920877243 Q 8.201036865234375 3.250665492087724 8.215786865234374 3.280915492087724 Q 8.230536865234376 3.3111654920877243 8.230536865234376 3.350665492087724 Q 8.230536865234376 3.360165492087724 8.224036865234375 3.3664154920877243 Q 8.217536865234376 3.372665492087724 8.207536865234374 3.372665492087724 L 8.006036865234375 3.372665492087724 L 8.006036865234375 3.3326654920877243 L 8.206036865234374 3.3326654920877243 L 8.185536865234376 3.346665492087724 Q 8.185036865234375 3.321665492087724 8.175536865234374 3.301915492087724 Q 8.166036865234375 3.2821654920877243 8.148536865234375 3.270665492087724 Q 8.131036865234375 3.259165492087724 8.106036865234374 3.259165492087724 Q 8.077536865234375 3.259165492087724 8.057286865234374 3.271665492087724 Q 8.037036865234375 3.284165492087724 8.026536865234375 3.305915492087724 Q 8.016036865234375 3.327665492087724 8.016036865234375 3.3551654920877243 Q 8.016036865234375 3.382665492087724 8.028536865234376 3.4041654920877242 Q 8.041036865234375 3.4256654920877243 8.063036865234375 3.438165492087724 Q 8.085036865234375 3.450665492087724 8.113536865234375 3.450665492087724 Q 8.129036865234374 3.450665492087724 8.145286865234375 3.4449154920877243 Q 8.161536865234375 3.439165492087724 8.171536865234375 3.431665492087724 Q 8.179036865234375 3.426165492087724 8.187786865234376 3.425915492087724 Q 8.196536865234375 3.4256654920877243 8.203036865234376 3.4311654920877244 Q 8.211536865234375 3.438665492087724 8.212036865234374 3.447665492087724 Q 8.212536865234375 3.456665492087724 8.204036865234375 3.463165492087724 Q 8.187036865234376 3.476665492087724 8.161786865234374 3.485165492087724 Q 8.136536865234374 3.493665492087724 8.113536865234375 3.493665492087724 M 8.327272705078125 3.491665492087724 Q 8.316272705078124 3.491665492087724 8.308772705078123 3.4841654920877243 Q 8.301272705078125 3.476665492087724 8.301272705078125 3.4656654920877243 L 8.301272705078125 3.127165492087724 Q 8.301272705078125 3.1156654920877243 8.308772705078123 3.1084154920877243 Q 8.316272705078124 3.1011654920877243 8.327272705078125 3.1011654920877243 Q 8.338772705078124 3.1011654920877243 8.346022705078123 3.1084154920877243 Q 8.353272705078124 3.1156654920877243 8.353272705078124 3.127165492087724 L 8.353272705078124 3.4656654920877243 Q 8.353272705078124 3.476665492087724 8.346022705078123 3.4841654920877243 Q 8.338772705078124 3.491665492087724 8.327272705078125 3.491665492087724 M 8.54853076171875 3.491665492087724 Q 8.52353076171875 3.491665492087724 8.50353076171875 3.478915492087724 Q 8.483530761718749 3.466165492087724 8.472030761718749 3.4441654920877243 Q 8.460530761718749 3.422165492087724 8.460530761718749 3.394665492087724 L 8.460530761718749 3.156165492087724 Q 8.460530761718749 3.145165492087724 8.467530761718749 3.138165492087724 Q 8.47453076171875 3.131165492087724 8.48553076171875 3.131165492087724 Q 8.496530761718748 3.131165492087724 8.50353076171875 3.138165492087724 Q 8.51053076171875 3.145165492087724 8.51053076171875 3.156165492087724 L 8.51053076171875 3.394665492087724 Q 8.51053076171875 3.414665492087724 8.521530761718749 3.4281654920877243 Q 8.53253076171875 3.4416654920877243 8.54853076171875 3.4416654920877243 L 8.56553076171875 3.4416654920877243 Q 8.57453076171875 3.4416654920877243 8.58078076171875 3.448665492087724 Q 8.587030761718749 3.455665492087724 8.587030761718749 3.4666654920877242 Q 8.587030761718749 3.4776654920877244 8.578780761718749 3.484665492087724 Q 8.570530761718748 3.491665492087724 8.557530761718748 3.491665492087724 L 8.54853076171875 3.491665492087724 M 8.43753076171875 3.2711654920877242 Q 8.427030761718749 3.2711654920877242 8.42053076171875 3.265165492087724 Q 8.414030761718749 3.259165492087724 8.414030761718749 3.2501654920877243 Q 8.414030761718749 3.240165492087724 8.42053076171875 3.2341654920877243 Q 8.427030761718749 3.228165492087724 8.43753076171875 3.228165492087724 L 8.553030761718748 3.228165492087724 Q 8.563530761718749 3.228165492087724 8.57003076171875 3.2341654920877243 Q 8.576530761718749 3.240165492087724 8.576530761718749 3.2501654920877243 Q 8.576530761718749 3.259165492087724 8.57003076171875 3.265165492087724 Q 8.563530761718749 3.2711654920877242 8.553030761718748 3.2711654920877242 L 8.43753076171875 3.2711654920877242" fill="#67a97b" fill-rule="nonzero"></path></g></g><defs><clipPath id="SvgjsClipPath13042"><path d=" M -4.679837394403343 -0.2440460613681621 h 4.2798373944033425 v 3.9797576148240483 h -4.2798373944033425 Z"></path></clipPath><clipPath id="SvgjsClipPath13040f2195356-784a-45c5-8a68-e87dc977f939"><path d=" M -4.679837394403343 -0.2440460613681621 L -0.40000000000000036 -0.2440460613681621 L -0.40000000000000036 3.7357115534558862 L -4.679837394403343 3.7357115534558862 Z"></path></clipPath></defs></svg>